<svg width="590" height="557" viewBox="0 0 590 557" fill="none" xmlns="http://www.w3.org/2000/svg">
<g clip-path="url(#clip0_3_76)">
<path fill-rule="evenodd" clip-rule="evenodd" d="M185.626 493.496C174.219 494.765 162.697 494.569 151.339 492.914C146.353 492.05 149.029 496.589 149.677 496.972C152.835 499.017 164.186 501.81 163.538 502.492C162.175 503.906 140.686 505.984 133.124 505.818C132.359 505.818 124.149 505.352 124.166 506.5C124.166 509.16 128.537 509.825 130.548 510.108C137.379 511.039 158.369 510.723 157.322 510.873C155.444 511.156 139.506 514.199 133.373 515.047C132.974 515.047 124.282 516.344 124.448 517.458C124.814 519.719 131.595 519.553 133.157 519.42C139.323 518.888 156.092 517.657 158.22 517.508C155.71 518.523 153.14 519.383 150.525 520.085C144.708 521.748 138.525 522.596 132.808 524.492C131.678 524.857 127.723 525.789 128.221 527.717C128.553 528.981 131.811 529.031 132.692 529.031C138.193 529.031 174.374 521.365 183.532 516.044C187.055 513.999 194.102 513.766 194.102 513.766C194.102 513.766 195.199 496.922 185.659 493.48" fill="white"/>
<path fill-rule="evenodd" clip-rule="evenodd" d="M169.554 239.398C169.55 231.373 166.362 223.678 160.69 218.004C155.018 212.329 147.327 209.139 139.306 209.135H63.371C55.3587 209.152 47.6804 212.348 42.0196 218.021C36.3587 223.694 33.1773 231.382 33.173 239.398V271.341C33.1774 279.367 36.3656 287.062 42.0372 292.736C47.7088 298.411 55.4 301.601 63.4208 301.605H88.849L106.865 328.21C106.865 328.21 111.452 335.045 116.022 334.33C121.324 333.515 120.476 324.552 120.476 324.552L121.64 301.555H139.306C147.327 301.551 155.018 298.361 160.69 292.686C166.362 287.012 169.55 279.317 169.554 271.292V239.398Z" fill="#1BA008"/>
<path fill-rule="evenodd" clip-rule="evenodd" d="M57.471 240.18H57.6538H57.82H57.9862H58.1524H58.3186H58.4682L58.6344 240.263L58.7673 240.363L58.9169 240.479L59.0332 240.596L59.1662 240.712L59.2825 240.845L59.3822 240.995V241.144L59.482 241.294V241.46V241.627V241.793V241.959V242.142V242.308L59.6814 246.1L59.8808 249.908L59.9806 251.803V253.715L60.0803 255.611V257.523L60.1634 259.419V261.331V263.243V265.139V267.051V268.964V269.911V270.859V271.824V273.287V273.453V273.636V273.803V273.952L60.0803 274.118L59.9806 274.268L59.8808 274.401L59.7811 274.534L59.6482 274.667L59.5318 274.784L59.3822 274.9L59.2493 275L59.7645 275.432L59.5983 275.515H59.4321H59.2659H59.0997H58.9335H58.2355H58.0527H57.8865H57.7203H57.5541H57.3879H57.2383L57.0887 275.432L56.9392 275.316L56.8062 275.216L56.6899 275.083L56.5569 274.966L56.4572 274.817L56.3575 274.684L56.2577 274.534L56.1746 274.368V274.218V274.052V273.869V273.703V273.354V272.406V271.458V270.527V269.579V267.683V265.788V263.892V261.996V260.101V258.205L56.0916 256.309L55.9918 254.414L55.8921 252.518V250.606L55.6927 246.815L55.4932 243.023V242.491V242.325V242.159V241.992V241.826V241.676L55.5763 241.51L55.6761 241.377L55.7924 241.227L55.9087 241.094L56.0251 240.978L56.158 240.862L56.3076 240.762L56.4572 240.662L56.6068 240.579H56.773H56.9392H57.1054H57.2715H57.4544H57.9696L57.471 240.18Z" fill="white"/>
<path fill-rule="evenodd" clip-rule="evenodd" d="M76.6003 238.617H76.7665H76.9493H77.1155H77.2983H77.4645L77.6141 238.7H77.7803L77.9132 238.816L78.0628 238.916L78.1958 239.049L78.3121 239.166L78.4285 239.315L78.5282 239.465L78.6279 239.615L78.711 239.764V239.93V240.113V240.28V240.463V249.708V250.689V251.67V252.651V253.649V254.63L78.8107 256.609V258.604V259.602V260.6V261.597V262.612V263.609V272.888V273.071V273.254V273.42V273.586V273.753V273.902L78.7276 274.052L78.6113 274.202L78.4949 274.335L78.3786 274.468L78.229 274.584L78.0961 274.7L77.9465 274.8L77.7969 274.883H77.6307H77.4645H77.2817H77.1155H76.9327H76.218H76.0518H75.869H75.7028H75.5366L75.3704 274.8L75.2209 274.7L75.0713 274.601L74.9383 274.484L74.8054 274.368L74.6724 274.235L74.5561 274.102L74.4563 273.952L74.3566 273.802V273.636V273.487V273.304V273.137V272.954V272.422V271.94V263.626V262.645V261.664V260.683V259.702V258.704V256.725L74.2569 254.73V253.732V252.734V251.737V250.722V249.725V242.125V241.627V240.429V240.263V240.08V239.914V239.748L74.34 239.581V239.415L74.4397 239.265L74.5394 239.132L74.6558 238.983L74.7887 238.866L74.9217 238.75L75.0713 238.633L75.2209 238.534L75.3704 238.451L75.5366 238.367H75.7028H75.869H76.0518H76.218H76.7665L76.6003 238.617Z" fill="white"/>
<path fill-rule="evenodd" clip-rule="evenodd" d="M76.1515 254.879H76.3842H76.5172H76.6501H76.7831H76.916H77.0324H77.1653H77.2817H77.398L77.5144 254.963L77.6141 255.046H77.7138L77.8135 255.145L77.9132 255.245V255.345V255.461V255.578V255.694V255.811V255.944V256.06V256.193V256.326V256.459V256.592V257.407V257.54V257.673V257.806V257.939V258.055V258.188V258.305V258.421V258.521V258.637L77.8135 258.737L77.7138 258.837L77.6141 258.92H77.5144L77.398 259.003L77.2817 259.086H77.1653H77.049H76.916H76.7831H76.6667H76.5338H76.3842H76.1183H75.5366H74.9549H74.3732H73.7915H72.6282H71.4482H70.2848H69.1214H68.5397H67.958H67.3929H66.8113H66.2296H65.6645H65.0994H64.5344H63.9693H63.4208H63.1383H62.8558H62.5898H62.3073H62.0414H61.7589H61.493H61.2104H60.9445H60.6786H60.4127H60.1468H59.8808H59.6149H59.349H59.0997H58.8338H58.5679H58.3186H58.0527H57.9197H56.9558H56.8228H56.6899H56.5735H56.4406H56.3076H56.1913H56.0749H55.9586L55.8589 259.003L55.7425 258.92L55.6428 258.82V258.721L55.5431 258.621V258.504V258.405V258.288V258.155V258.039V257.906V257.789V257.656V257.523V257.39V258.804V258.671V258.538V258.421V258.288V258.155V258.039V257.922V257.806V257.69V257.573L55.6428 257.473L55.7425 257.374L55.8422 257.291L55.942 257.207H56.0583L56.1746 257.124H56.291H56.4073H56.5403H56.6566H56.7896H56.9225H57.2051H57.5042H57.8034H58.1025H58.4017H58.7008H59H59.2991H59.6149H59.9141H60.2132H60.5124H60.8115H61.1107H61.4098H61.709H62.0248H62.3239H62.6231H62.9222H63.5372H64.1355H64.7338H65.3321H65.947H66.5453H67.1437H67.742H68.3403H68.9386H70.1186H71.282H72.4453H73.6087H74.1738H74.7389H75.3039H75.869H76.1349L76.1515 254.879Z" fill="white"/>
<path fill-rule="evenodd" clip-rule="evenodd" d="M101.829 237.436H101.979H102.112H102.244H102.394H102.527H102.66H102.776H102.909L103.026 237.519H103.142L103.258 237.619L103.375 237.702L103.474 237.802V237.902L103.574 238.018L103.657 238.135V238.251V238.367V238.5V238.634V238.767V238.9V239.033V239.166V240.163V240.296V240.429V240.562V240.695V240.812V240.945L103.574 241.061L103.491 241.178V241.294L103.391 241.394L103.292 241.494H103.192L103.075 241.593L102.959 241.676H102.843H102.71H102.577H102.461H102.328H102.178H102.045H101.912H101.58H101.247H100.915H100.583H100.25H99.9177H99.5854H99.2696H98.9372H98.6048H96.6437H96.0121H88.018H87.7189H87.1372H86.8546H86.5555H86.2729H85.9904H85.6913H85.4087H85.1262H84.8436H84.5611H84.2952H84.0127H83.7301H83.4642H83.1817H82.9158H82.6332H82.3507H82.2177H81.3701H81.2206H81.0876H80.9546H80.8217H80.6887H80.5558H80.4394L80.3065 241.593H80.1901L80.0738 241.494L79.9741 241.41L79.8744 241.311L79.7746 241.211V241.095L79.6749 240.978V240.862V240.745V240.612V240.479V240.363V240.213V240.08V239.947V239.798V239.099V238.966V238.816V238.683V238.55V238.417V238.301V238.168V238.052V237.935V237.835L79.7746 237.719L79.8744 237.619L79.9907 237.519H80.0904L80.2068 237.436H80.3397H80.456H80.589H80.722H80.8549H80.9879L81.3037 237.336L81.6361 237.253H81.9851L82.3175 237.17H82.6498H82.9822H83.3146H83.6636H83.9961H84.3284H84.6608H84.9932H85.3256H85.658H85.9904H86.3062H86.6386H86.971H87.6191H87.9516H98.5383H98.8374H99.12H99.4191H99.7017H100.001H100.283H100.566H100.848H101.148H101.713L101.829 237.436Z" fill="white"/>
<path fill-rule="evenodd" clip-rule="evenodd" d="M91.7741 239.265H91.9403H92.1065H92.2893H92.4555H92.6051H92.7713L92.9209 239.349L93.0704 239.448L93.2034 239.565L93.3363 239.681L93.4693 239.798L93.569 239.931L93.6854 240.08L93.7685 240.23V240.379L93.8516 240.546V240.695V240.878V241.045V241.211V241.394V242.358V243.323V244.287V245.252V246.216V247.18V248.145V249.109V250.074V251.022V251.986V252.951V254.879V256.792V258.704V260.633V262.528V264.441V266.353V267.301V268.265V269.213V270.161V271.109V272.073V272.589V272.772V272.938V273.104L93.7685 273.254V273.42L93.6687 273.57L93.569 273.719L93.4527 273.852L93.3363 273.969L93.2034 274.102L93.0704 274.202L92.9375 274.318L92.7879 274.401H92.6217H92.4721H92.3059H92.1397H91.9569H91.0927H90.9099H90.7437H90.5775H90.4113H90.2617L90.1121 274.301L89.9625 274.202L89.8296 274.085L89.6966 273.969L89.5803 273.836L89.4806 273.703L89.3642 273.57V273.42L89.2811 273.254V273.104V272.938V272.755V272.589V272.239V271.275V270.327V269.363V268.398V267.434V266.469V264.557V262.628V260.716V258.804V256.891V254.979V253.067V252.119V251.171V250.49V249.542V248.594V247.646V246.698V245.75V244.803V243.855V242.907V241.959V241.427V241.261V241.078V240.912V240.762L89.3642 240.596V240.446L89.4639 240.296L89.5637 240.163L89.68 240.03L89.813 239.897L89.9459 239.798L90.0789 239.681H90.2285L90.3946 239.598H90.5442H90.7104H90.8766H91.0595H91.2256H91.7575L91.7741 239.265Z" fill="white"/>
<path fill-rule="evenodd" clip-rule="evenodd" d="M127.191 234.909H127.39H127.573H127.772H127.955H128.105H128.238H128.371H128.504L128.637 234.992H128.736L128.836 235.092H128.919V235.191V235.291L129.019 235.458L129.102 235.591V235.724V235.84V235.956L129.185 236.156L129.285 236.372V236.572V236.771V236.954L129.401 237.287L129.484 237.553V237.702L129.567 237.968V238.218V238.451V238.7V238.949V239.199V239.448V239.698V239.947V240.18V240.429V240.679V240.928V241.178V241.41V241.66V241.909V263.26V264.141V265.023V265.904V266.785V267.667V268.548V268.98V269.413V269.862V270.294V270.726V271.159V271.608V272.04V272.472V272.905V273.337V273.786V274.368V274.551V274.734V274.917L129.484 275.1L129.401 275.266L129.301 275.432L129.185 275.598L129.069 275.748L128.936 275.881L128.786 276.014L128.637 276.13L128.47 276.23L128.304 276.33H128.138H127.955H127.772H127.59H127.39H126.808H126.626H126.443H126.26H126.077L125.911 276.247L125.745 276.147L125.595 276.031L125.446 275.914L125.296 275.781L125.163 275.632L125.047 275.482L124.947 275.316L124.847 275.149V274.983V274.8V274.617V274.434V274.235V273.786V273.337V272.871V272.422V271.973V271.508V271.059V270.593V270.144V269.695V269.23V268.781V267.883V266.968V266.07V265.156V264.258V245.767V245.95L124.598 246.615L124.116 247.945L123.85 248.611L123.601 249.292L123.335 249.957L123.202 250.307L123.069 250.639L122.936 250.988L122.786 251.321L122.654 251.67L122.504 252.003L122.371 252.352L122.221 252.685L122.072 253.034L121.922 253.35L122.919 253.815L122.803 254.065L122.687 254.331L122.537 254.63L122.454 254.796V254.946L122.371 255.112V255.262L122.271 255.428L122.172 255.594L122.072 255.761L121.972 255.944L121.856 256.11L121.739 256.276L121.623 256.459L121.49 256.625L121.341 256.792L121.191 256.975L121.041 257.124L120.942 257.224L120.859 257.307L120.759 257.39H120.659L120.543 257.473L120.443 257.557H120.327L120.21 257.64H120.077L119.945 257.723H119.812H119.662H119.562H119.379H119.197H119.014H118.266H118.083H117.9H117.717H117.535L117.368 257.64L117.202 257.54L117.053 257.44L116.903 257.324L116.77 257.191L116.637 257.058L116.554 256.958L116.438 256.792L116.321 256.609L116.172 256.393L116.022 256.127L115.623 255.495L115.191 254.78L114.344 253.4L114.061 252.917L113.978 252.768L113.812 252.518L113.629 252.219L113.463 251.936L113.28 251.637L113.114 251.354L112.948 251.072L112.781 250.789L112.632 250.506L112.316 249.957L112.017 249.409L111.718 248.877L111.585 248.627L111.286 248.827L111.136 248.561L110.986 248.328L110.837 248.078L110.687 247.846L110.554 247.629L110.388 247.397V247.297L110.305 247.181V247.081L110.222 246.964V246.865L110.139 246.765V246.665L110.056 246.565V246.466H109.973V246.366L109.89 246.266V246.582V246.964V247.713V248.428V249.076V249.725V250.39V251.055V256.709V257.673V258.621V259.569V260.5V268.814V270.311V273.503V273.703V273.886V274.069V274.251L109.806 274.434L109.723 274.601L109.624 274.767L109.507 274.917L109.391 275.066L109.258 275.199L109.108 275.332L108.959 275.449L108.793 275.548L108.626 275.648H108.444H108.261H108.078H107.895H107.131H106.931H106.748H106.566L106.383 275.565L106.217 275.482L106.05 275.382L105.901 275.266L105.751 275.133L105.618 275L105.485 274.867L105.369 274.7L105.269 274.551L105.186 274.368L105.103 274.202V274.019V273.836V273.653V271.774V270.294V260.317V259.352V258.405V257.457V256.509V251.254V250.606V249.957V249.292V248.644V248.045V247.297V246.898V243.805V243.572V243.423V243.156V243.04V242.907V242.774V242.641V242.491V242.358V242.225V242.092V241.959V241.81V241.677V241.527V241.344V241.228L105.186 241.111L105.269 240.978L105.369 240.862L105.469 240.745L105.568 240.646L105.685 240.546L105.801 240.463H105.917H106.034H106.15H106.283H106.399H106.516H106.615H106.765H106.998H107.962H108.111H108.261H108.394H108.527H108.643H108.759H108.876H108.992H109.192H109.391L109.59 240.562H109.773L109.956 240.646L110.139 240.745H110.305L110.471 240.828L110.621 240.928L110.787 241.011L110.937 241.111L111.07 241.194L111.203 241.277L111.452 241.444L111.668 241.593L111.851 241.726L111.967 241.81L112.067 241.909L112.233 242.059L112.383 242.192L112.515 242.325L112.665 242.458L112.798 242.591L112.931 242.741L113.047 242.874L113.18 243.007L113.297 243.156L113.43 243.289L113.546 243.439L113.662 243.572L113.779 243.722L113.895 243.871L113.995 244.005L114.111 244.154L114.211 244.304L114.31 244.453L114.427 244.586L114.526 244.736L114.709 245.035L114.909 245.318L115.092 245.617L115.274 245.9L115.441 246.183L115.607 246.482L115.773 246.765L115.939 247.047L116.255 247.613L116.554 248.162L116.853 248.694L117.003 248.96L117.152 249.209L117.285 249.459L117.435 249.708L117.584 249.957L117.734 250.19L117.884 250.423L118.05 250.689V250.806L118.166 250.972L118.449 251.437V251.238L118.582 250.939L118.715 250.623L118.848 250.323L118.981 250.007L119.114 249.691L119.246 249.375L119.595 248.827L119.712 248.494L119.845 248.178L120.094 247.53L120.343 246.881L120.593 246.216L121.091 244.886L121.341 244.221L121.59 243.539L121.856 242.874L122.122 242.192L122.255 241.843L122.388 241.51L122.521 241.178L122.654 240.845V240.662L122.853 240.13L122.969 239.781L123.102 239.432L123.252 239.049V238.85L123.335 238.65V238.451L123.418 238.234L123.518 238.035L123.601 237.835L123.701 237.636L123.8 237.436L123.9 237.22L124.016 237.021L124.133 236.838V236.721L124.216 236.622V236.505L124.299 236.405V236.289L124.399 236.173L124.498 236.056L124.615 235.94L124.748 235.823L124.897 235.69L125.08 235.557L125.296 235.424H125.429H125.545H125.662H125.828H125.994H126.16H126.709L127.191 234.909Z" fill="white"/>
<path fill-rule="evenodd" clip-rule="evenodd" d="M138.509 235.291H138.708H138.908H139.09H139.273L139.456 235.374L139.622 235.474L139.788 235.59L139.938 235.707L140.088 235.84L140.221 235.99L140.354 236.139L140.453 236.305L140.553 236.472V236.655L140.636 236.838V237.021V237.22V237.802V238.683V239.565V240.446V241.344V242.225V243.123V244.021V244.919V245.817V258.421V258.854V259.303V259.751V260.184V260.633V261.082V261.514V261.963V262.395V262.828V263.277V263.709V264.141V264.574V265.006V265.438V265.871V266.32V272.971H140.802H142.896H143.146H143.761H144.409H145.04H145.688H146.32H146.968H147.284H147.6H147.915H148.231H148.53H148.846H149.162H149.461H149.777H150.076H150.375H150.674H150.957H151.256H151.539H151.821H152.104H152.37H152.635H152.918H153.117H153.3H153.899H154.098H154.281H154.48H154.663H154.829L155.012 273.071L155.178 273.171L155.328 273.304L155.461 273.437L155.61 273.586L155.727 273.736L155.826 273.902L155.926 274.068L156.009 274.251L156.092 274.434V274.617V274.817V275.016V275.598V275.798V275.981V276.164V276.347L155.993 276.529L155.893 276.696L155.777 276.845L155.644 276.995L155.511 277.145L155.361 277.261L155.195 277.378L155.029 277.494L154.863 277.577H154.68H154.48L154.164 277.677L153.832 277.777L153.483 277.86H153.151L152.802 277.943L152.469 278.026H152.12H151.788H151.439H151.09H150.757H150.408H150.059H149.727H149.378H149.029H148.697H148.348H148.015H147.683H147.001H146.353H145.688H145.057H144.425H143.794H143.478H140.802H140.603H140.37H140.154H139.938H139.705H139.489H139.257H139.041H138.908H138.791H138.675H138.559H138.442H138.326H138.21H138.093H137.994H137.877H137.761H137.644L137.528 277.943H137.412L137.312 277.86L137.196 277.777H137.096L136.98 277.677L136.88 277.577V277.477L136.797 277.378V277.278L136.714 277.178L136.631 277.062L136.514 276.879L136.398 276.679L136.298 276.496L136.199 276.297V276.114V275.914V275.731V275.548V275.366V275.183V275V274.833V274.65V274.468V274.285V274.118V273.935V267.118V266.686V266.237V265.771V265.322V264.873V264.407V263.958V263.493V263.044V262.578V262.129V261.664V261.198V260.749V260.284V259.818V259.352V258.903V256.11V255.195V245.019V244.104V243.19V242.275V241.361V240.463V239.565V238.667V237.769V237.586V237.386V237.187V237.004V236.821L136.298 236.655L136.398 236.472L136.514 236.322L136.631 236.172L136.78 236.023L136.93 235.906L137.079 235.79L137.246 235.674L137.428 235.59H137.595H137.794H137.977H138.176H138.758L138.509 235.291Z" fill="white"/>
<path fill-rule="evenodd" clip-rule="evenodd" d="M210.638 59.463C210.638 42.8346 203.409 29.216 186.723 29.216H110.787C94.1673 29.216 87.0541 42.7681 87.0541 59.463V91.4061C87.0541 108.034 94.1008 121.67 110.787 121.67H136.215L154.231 148.275C154.231 148.275 158.818 155.109 163.388 154.394C168.69 153.579 167.843 144.617 167.843 144.617L169.006 121.62H186.673C203.292 121.62 210.588 108.051 210.588 91.3562L210.638 59.463Z" fill="#1BA008"/>
<path fill-rule="evenodd" clip-rule="evenodd" d="M132.974 59.9286H133.24H133.39H133.523H133.656H133.789H133.905H134.038H134.154H134.271H134.387H134.487L134.603 60.0284L134.703 60.1281V60.2279L134.786 60.3277L134.869 60.4441V60.5605V60.6935V60.8099V60.9429V61.0759V61.209V61.342V61.475V62.3064V62.4395V62.5725V62.7221V62.8385V62.9716V63.1046L134.786 63.221V63.3374L134.703 63.4538L134.62 63.5536L134.52 63.6533L134.42 63.7531L134.321 63.8529L134.204 63.936L133.872 64.2021L133.523 64.4515L133.174 64.7175L132.808 64.967L132.459 65.2164L132.11 65.4658L131.761 65.7152L131.395 65.9647L131.046 66.1975L130.681 66.4469L130.332 66.6797L129.966 66.9125L129.268 67.3781L128.554 67.827L127.839 68.2926L127.141 68.7416L126.426 69.1906L125.728 69.6396L125.047 70.0719L124.349 70.5209L124 70.7536L123.667 70.9698L123.335 71.2026L122.969 71.4354L122.836 71.5185L122.703 71.6183H122.554L122.404 71.7015H122.255L122.105 71.7846L121.806 71.9509L121.507 72.1005L121.224 72.2502L120.643 72.5495L120.36 72.6992L120.077 72.8322L119.812 72.9818H119.695H119.579H119.662H119.845L120.028 73.065H120.21L120.393 73.1481H120.559H120.742H120.925H121.108H121.291L121.673 73.2811L122.055 73.4142L122.454 73.5472L123.252 73.8299L123.568 73.9297L123.867 74.0294L124.183 74.1292L124.482 74.229L124.797 74.3287L125.113 74.4119L125.429 74.5116H125.745L126.061 74.6114L126.376 74.6946L127.024 74.8775L128.354 75.2267H128.603H128.869L129.384 75.3597L129.9 75.5094L130.398 75.659L130.897 75.8253L131.379 75.9749L132.343 76.2742L132.825 76.4239L133.29 76.5569L133.772 76.69H134.005H134.237H134.454H134.686H134.919H135.152H135.368H135.6H135.833H136.066H136.199H136.332H136.464H136.597H136.714H136.847L136.963 76.7731H137.079L137.179 76.8563H137.279L137.395 76.956L137.478 77.0558V77.1722L137.578 77.2886V77.405V77.5214V77.6378V77.7708V77.9038V78.0368V78.1699V78.3029V79.2674V79.417V79.55V79.6664V79.7995V79.9325V80.0489V80.1653V80.2817L137.478 80.3981V80.4979L137.379 80.5976L137.279 80.6974L137.163 80.7805H137.063L136.946 80.8637H136.814H136.697H136.564H136.431H136.298H136.165H135.201H135.068H134.803H134.537H134.254H133.988H133.722H133.456H133.19L132.924 80.7805H132.675H132.409L131.894 80.6309L131.395 80.4812L130.897 80.3316L129.916 80.0156L129.418 79.866L128.952 79.7329L128.47 79.5833L128.005 79.4503L127.523 79.3006H127.307H127.074L125.745 78.9514L125.063 78.7519H124.731L124.382 78.6521L124.05 78.5523L123.701 78.4526L123.368 78.3528L123.019 78.253L122.67 78.1366L122.321 78.0368L121.972 77.9205L121.64 77.8041L120.825 77.5214L120.41 77.3717L119.994 77.2221L119.579 77.0724H119.363L119.13 76.9893H118.914L118.698 76.9061L118.482 76.823L118.249 76.7232L118 76.6068L117.734 76.4904L117.468 76.374L117.319 76.2909H117.186H117.053H116.92H116.77L116.637 76.2077H116.504L116.355 76.1246L116.222 76.0415H116.089L115.956 75.9417L115.839 75.8585H115.723L115.607 75.7754L115.49 75.6756H115.374L115.258 75.5759L115.141 75.4761L115.042 75.3763L114.942 75.2766L114.826 75.1768L114.726 75.0604L114.626 74.9606L114.543 74.8442L114.443 74.7278V74.5948L114.344 74.4784L114.261 74.3454V74.2123V74.0793V73.9297L114.177 73.78V73.6303V73.4807V73.3144V73.1481V72.9818V72.8155V72.6493V71.6349V71.4853V71.319V71.1694V71.0197V70.8867V70.737V70.604V70.4876V70.3546V70.2382V70.1218V70.022L114.261 69.9056V69.8058L114.344 69.7061V69.6229L114.427 69.5231L114.576 69.3569L114.726 69.1906L114.892 69.0409L115.058 68.9079L115.224 68.7749L115.391 68.6418L115.557 68.5255L115.723 68.409L115.889 68.2926L116.039 68.1762L116.205 68.0765L116.371 67.9767L116.537 67.8769L116.704 67.7772L116.87 67.694L117.036 67.5942L117.352 67.428L117.668 67.2617L117.983 67.0954L118.565 66.7961L118.831 66.6631L119.08 66.53L119.313 66.4136H119.413H119.512H119.595L119.945 66.1809L120.294 65.948L120.659 65.7152L121.008 65.4824L121.723 65.0169L122.437 64.5679L123.135 64.1189L123.85 63.67L124.548 63.221L125.246 62.772L125.928 62.3231L126.626 61.8741L126.958 61.6579L127.307 61.4251L127.639 61.209L127.972 60.9762L128.304 60.7434L128.637 60.5272L128.969 60.2944L129.285 60.0616L129.617 59.8288L129.933 59.5794L130.249 59.3466L130.581 59.0972H130.697H130.814H130.93H131.046H131.179H131.312H131.445H131.578H131.711H132.276L132.974 59.9286Z" fill="white"/>
<path fill-rule="evenodd" clip-rule="evenodd" d="M162.807 53.6763H163.006H163.206H163.405H163.588L163.771 53.7761L163.937 53.8759L164.103 53.9923L164.253 54.1253L164.402 54.2583L164.535 54.408L164.652 54.5743L164.768 54.7405V54.9235L164.851 55.1064V55.3059V55.5054V55.705V56.5031V56.7027V56.8856V57.0851L164.502 57.8667L164.136 58.6648L163.771 59.4464L163.405 60.2279L163.039 61.0094L162.657 61.791L162.275 62.5725L161.909 63.3374L161.527 64.1189L161.145 64.8838L160.746 65.6487L160.364 66.4137L159.981 67.1786L159.583 67.9435L158.801 69.4733L158.02 70.9865L157.239 72.4996L156.458 74.0128L155.694 75.526L155.295 76.2743L154.912 77.0225L154.53 77.7874L154.148 78.5357L153.782 79.3006L153.4 80.0489L153.034 80.8138L152.669 81.5621L152.419 82.0776L152.187 82.5764L151.954 83.0919L151.721 83.6074L151.489 84.1228L151.273 84.6383L151.04 85.1704L150.824 85.7025L150.591 86.218L150.375 86.7501L149.926 87.8143L149.494 88.8952L149.046 89.976L148.813 90.5081L148.58 91.0569L148.348 91.589L148.115 92.1377L147.882 92.6865L147.633 93.2352L147.384 93.7673L147.134 94.316L146.868 94.8648L146.735 95.1308L146.603 95.4135L146.47 95.6796L146.337 95.9456L146.204 96.2117L146.054 96.4944L145.904 96.7604L145.772 97.0265L145.622 97.2925L145.472 97.5752L145.323 97.8412L145.173 98.1073L145.024 98.3734L144.874 98.6394L144.758 98.8057L144.641 98.972L144.508 99.1216L144.359 99.2547L144.209 99.3877L144.043 99.5041L143.86 99.6038L143.677 99.687H143.495H143.295H143.096H142.896H142.298H142.099H141.899H141.716L141.533 99.6038L141.351 99.5041L141.184 99.4043L141.018 99.2713L140.869 99.1383L140.719 98.9886L140.603 98.839L140.486 98.6727L140.387 98.5064L140.287 98.3235V98.1239V97.941V97.7415V97.5419V96.9267V96.7438V96.5442V96.3447L140.37 96.1618L140.47 95.9789L140.603 95.7461L140.736 95.5133L140.869 95.2638L141.018 95.031L141.135 94.7816L141.268 94.5488L141.401 94.2994L141.533 94.0666L141.65 93.8172L141.783 93.5678L141.899 93.3183L142.032 93.0689L142.148 92.8195L142.265 92.5701L142.514 92.0712L142.747 91.5723L142.979 91.0569L143.212 90.5414L143.445 90.0259L143.661 89.5104L143.893 88.995L144.11 88.4629L144.326 87.9308L144.774 86.8665L145.223 85.8023L145.655 84.7215L145.888 84.1894L146.121 83.6406L146.353 83.0919L146.586 82.5598L146.819 82.011L147.051 81.4623L147.301 80.9136L147.55 80.3815L147.799 79.8327L148.065 79.284L148.447 78.5025L148.83 77.7376L149.212 76.956L149.594 76.1911L149.976 75.4262L150.359 74.6447L150.757 73.8964L151.14 73.1315L151.921 71.6017L152.702 70.0885L153.483 68.5753L154.264 67.0622L155.045 65.549L155.428 64.8007L155.81 64.0358L156.192 63.2875L156.574 62.5392L156.957 61.7743L157.322 61.0261L157.688 60.2612L158.054 59.5129L158.419 58.748L158.785 57.9831L159.134 57.2182L159.499 56.4699L159.848 55.705L160.181 54.9235L160.281 54.7405L160.38 54.5743L160.497 54.408L160.63 54.2583L160.763 54.1087L160.912 53.9756L161.078 53.8592L161.261 53.7428H161.427H161.61H161.81H162.009H162.208H162.807V53.6763Z" fill="white"/>
<path fill-rule="evenodd" clip-rule="evenodd" d="M171.516 62.1235H171.815H171.981H172.13H172.28H172.43H172.563H172.712H172.845L172.961 62.2233L173.094 62.323L173.211 62.4394L173.31 62.5558L173.46 62.7221L173.593 62.8718L173.743 63.0381L173.892 63.1877L174.042 63.3374L174.191 63.487L174.341 63.6533L174.507 63.803L174.673 63.9526L174.839 64.1023L174.989 64.2519L175.172 64.4016L175.338 64.5512L175.504 64.7009L175.687 64.8506L175.87 65.0002L176.036 65.1499L176.219 65.2995L176.418 65.4492L176.601 65.5988L176.784 65.7485L176.983 65.8815L177.166 66.0312L177.366 66.1808L177.748 66.4635L178.147 66.7628L178.562 67.0455L178.961 67.3282L179.377 67.6275L179.792 67.9102L180.64 68.4922L181.487 69.0741L181.919 69.3735L182.352 69.6561L182.767 69.9554L183.199 70.2548L183.631 70.5541L184.047 70.87L184.462 71.1693L184.678 71.3356L184.894 71.4853L185.094 71.6515L185.293 71.8178L185.509 71.9675L185.659 72.1005H185.742L185.958 72.2169L186.49 72.4996L186.789 72.6659L187.105 72.8488L187.271 72.9486L187.437 73.0317L187.603 73.1481L187.77 73.2479L187.936 73.3476L188.102 73.464L188.268 73.5804L188.434 73.7135L188.617 73.8465L188.783 73.9962L188.883 74.0793L188.966 74.1624L189.066 74.2622V74.362L189.166 74.4617L189.265 74.5948L189.365 74.7112L189.465 74.8608L189.548 75.0271L189.648 75.21L189.747 75.4262V75.6257V75.792V75.925V76.1911V76.3241V77.4715V77.5879V77.7209V77.9371V78.1532V78.3528V78.5523L189.648 78.7352L189.565 78.9182L189.465 79.101L189.365 79.2673L189.249 79.417L189.149 79.5667L189.033 79.7163L188.916 79.866L188.817 79.999L188.7 80.132L188.584 80.2651L188.451 80.3981L188.335 80.5145L188.218 80.6309L188.102 80.7473L187.969 80.8637L187.853 80.9801L187.72 81.0965L187.603 81.1962L187.47 81.296L187.354 81.3958L187.221 81.4955L187.088 81.5953L186.972 81.6951L186.723 81.878L186.473 82.0609L186.224 82.2272L185.991 82.3768L185.742 82.5431L185.526 82.6762L185.293 82.8258L185.077 82.9422L184.878 83.0752L184.695 83.175L184.346 83.3745L184.08 83.5242L183.797 83.6738L183.515 83.8235L183.232 83.9732L182.95 84.1228L182.667 84.2558L182.385 84.4055L182.119 84.5385L181.836 84.6716L181.537 84.8046L181.255 84.9376L180.972 85.0706L180.69 85.2037L180.407 85.3201L180.125 85.4531L179.842 85.5695L179.559 85.7025L178.994 85.9353L178.429 86.1681L177.864 86.4009L177.299 86.6171L176.734 86.8499L176.169 87.066L175.055 87.4984L173.942 87.9307L173.394 88.1469L172.845 88.3631L172.297 88.5792L171.765 88.7954L171.216 89.0282L170.685 89.2444L170.153 89.4772L169.903 89.5936L169.637 89.7099L169.372 89.8264L169.122 89.9427L168.856 90.0592L168.607 90.1755L168.341 90.3086L168.092 90.425L167.843 90.558L167.593 90.6744L167.344 90.8074L167.095 90.9405L166.845 91.0735L166.596 91.2065H166.446H166.314H166.164H166.014H165.848H165.067H164.901H164.751H164.602H164.452H164.303H164.153L164.02 91.1234H163.887L163.771 91.0236L163.638 90.9238L163.538 90.8074L163.422 90.691L163.322 90.5746L163.239 90.4416L163.139 90.3086V90.1755V90.0259V89.8762V89.7266V89.5769V89.4107V89.1945V89.0448V88.8785V88.7289V88.5792V88.4462V88.2966L163.222 88.1635L163.305 88.0305L163.405 87.9141L163.521 87.7977L163.621 87.6813L163.754 87.5815L163.87 87.4818L164.003 87.3986H164.136L164.419 87.249L164.701 87.0993L164.984 86.9496L165.266 86.8L165.549 86.667L165.832 86.5173L166.114 86.3843L166.397 86.2512L166.679 86.1182L166.962 85.9852L167.244 85.8522L167.527 85.7192L167.826 85.6027L168.108 85.4697L168.674 85.2203L169.239 84.9875L169.804 84.7547L170.385 84.5219L170.95 84.2891L171.516 84.0729L172.081 83.8568L173.194 83.4244L174.308 82.9921L174.856 82.7759L175.405 82.5597L175.936 82.3436L176.485 82.1274L177.017 81.8946L177.548 81.6784L177.814 81.5621L178.064 81.4457L178.33 81.3293L178.595 81.2129L178.845 81.0965L179.111 80.9801L179.36 80.8637L179.609 80.7473L179.875 80.6309L180.125 80.4978L180.374 80.3814L180.623 80.2484L180.872 80.1154L181.105 79.999L181.354 79.866L181.604 79.7329L181.836 79.5999L182.135 79.4336H182.285L182.451 79.3339L182.617 79.2341L182.8 79.1177L182.983 79.0013L183.166 78.8849L183.349 78.7685L183.532 78.6355L183.698 78.5025L183.881 78.3694H183.964H184.047H184.13L183.847 78.2197L183.315 77.9204L183.066 77.7874H182.933H182.8H182.667L182.534 77.6877L182.368 77.5879L182.235 77.4881L182.036 77.3218L181.853 77.1722L181.67 77.0391L181.487 76.8895L181.305 76.7565L181.122 76.6234L180.739 76.3408L180.341 76.0581L179.942 75.7754L179.543 75.4927L179.127 75.21L178.728 74.9107L178.296 74.628L177.449 74.046L176.601 73.464L176.169 73.1647L175.737 72.8654L175.305 72.5495L174.873 72.2502L174.441 71.9342L174.008 71.6183L173.792 71.452L173.576 71.2857L173.36 71.1195L173.144 70.9532L172.928 70.7869L172.729 70.6206L172.513 70.4543L172.297 70.288L172.097 70.1051L171.881 69.9222L171.682 69.7559L171.482 69.573L171.266 69.3901L171.067 69.2072L170.867 69.0243L170.668 68.8414L170.468 68.6418L170.286 68.4423L170.086 68.2594L169.887 68.0598L169.704 67.8603L169.521 67.6608L169.338 67.4446L169.156 67.245L169.056 67.1286L168.973 66.9956V66.8626L168.89 66.7296V66.5799V66.4302V66.2806V66.1309V65.9813V64.2519V64.1023V63.9526V63.803V63.6533L168.973 63.5203L169.056 63.3706V63.2542L169.156 63.1212L169.255 63.0048L169.372 62.8884L169.488 62.7886L169.621 62.6889L169.754 62.6057H169.887H170.036H170.169H170.319H170.468H170.635H170.784H171.266L171.516 62.1235Z" fill="white"/>
<path fill-rule="evenodd" clip-rule="evenodd" d="M355.064 91.6222C355.064 74.9939 362.293 61.3586 378.996 61.3586H454.915C471.618 61.3586 478.664 74.9274 478.664 91.6222V123.565C478.664 140.194 471.618 153.829 454.915 153.829H429.454L411.438 180.434C411.438 180.434 406.851 187.269 402.264 186.554C396.979 185.739 397.81 176.776 397.81 176.776L396.663 153.779H378.996C362.293 153.779 355.064 140.21 355.064 123.515V91.6222Z" fill="#1BA008"/>
<path fill-rule="evenodd" clip-rule="evenodd" d="M393.821 86.7501H394.619H394.785H394.951H395.117H395.283H395.433H395.599H395.765H395.932H396.081H396.247H396.397L396.563 86.8333L396.713 86.933L396.862 87.0162L397.012 87.1159L397.161 87.2323L397.294 87.3321L397.427 87.4485L397.577 87.5649L397.71 87.6979L397.826 87.8143L397.959 87.9474L398.075 88.0804L398.192 88.23L398.308 88.3631L398.424 88.5127L398.541 88.6624L398.641 88.812L398.74 88.9617L398.857 89.1612L398.973 89.3774L399.089 89.5769L399.206 89.7765L399.305 89.9926L399.388 90.1922L399.488 90.4083V90.6079L399.571 90.824L399.654 91.0236V91.2398V91.4559V91.6721V91.8716V92.0878V92.304V92.5035V92.7197V92.9359V93.1354V93.3516V93.5677V93.7673V93.9835V97.6251V98.0075V98.39V98.7724V99.1382V99.5041V99.8699V100.219V100.568V100.901L399.538 101.566V101.749V101.932V102.115L399.455 102.298L399.355 102.464L399.255 102.614L399.139 102.763L399.006 102.913L398.873 103.046L398.724 103.162L398.557 103.279L398.391 103.378L398.225 103.462L398.042 103.545H397.859H397.677H397.494H396.729H396.53H396.347H396.164L395.998 103.462L395.832 103.362L395.666 103.262L395.516 103.146L395.366 103.013L395.234 102.88L395.117 102.73L395.001 102.564L394.918 102.397L394.818 102.231V102.048V101.865V101.682V101.499V100.917V100.735L394.934 100.086V99.7701V99.4376V99.1216V98.789V98.4731V98.1572V97.8412V97.5087V97.1927V94.0001V93.867V94.183V94.05V93.9336V93.8172V93.7008V93.5844V93.468V93.3516V93.2518V93.1354V93.0356V92.9192V92.8194V92.7197V92.6199V92.5201V92.4204V92.3206H393.688H393.555H393.472H393.322H393.173L393.023 92.4037L392.857 92.4869L392.707 92.5867H392.558L392.392 92.6864L392.242 92.8028L392.092 92.9026L391.926 93.019L391.777 93.1188L391.627 93.2352L391.477 93.3516L391.328 93.4846L391.178 93.601L391.029 93.7174L390.896 93.8504L390.746 93.9668L390.613 94.0998L390.48 94.2162L390.347 94.3326L390.231 94.4657L390.115 94.5821L389.998 94.6985L389.882 94.8149L389.782 94.9313L389.683 95.0477L389.583 95.1474L389.5 95.2472L389.417 95.347V95.4467V95.5299L389.317 95.6629L389.234 95.8126L389.134 95.9456L389.051 96.0952V96.2449L388.951 96.3779L388.868 96.5276L388.785 96.6772L388.702 96.8269L388.619 96.9765V97.1262V97.2759L388.536 97.4255L388.453 97.5752V97.7248L388.37 97.8911V98.0408L388.287 98.1904V98.3567V98.5064V98.6726V98.8223V98.9886V99.1549V99.3211V99.4708V99.6371V99.8034V99.9696V100.136V100.302V100.469V100.635V100.801V100.967V101.15V101.317V101.483V101.649V101.832V101.998V102.181V102.348V102.514V102.697V102.88V103.046V103.229V103.395V103.578V103.944V104.293V104.659V105.025V105.374V105.74V106.106V106.471V106.854V107.22V111.294V111.659V112.025V112.391V112.757V113.123V113.505V113.854V114.22V114.586V114.952V115.301V115.65V116.016L388.37 116.365V116.714L388.453 117.064L388.536 117.396L388.619 117.745V117.862V117.978V118.095V118.211V118.311V118.427V118.527V118.643V118.743V118.859V118.959V119.059V119.159V119.259V119.358V119.458V119.541V119.641V119.741V119.824V119.924V120.007V120.09V120.173V120.256H388.752H391.012H391.095H391.278H391.361H391.444H391.544H391.627H391.727H391.81H391.91H392.009H392.109H392.192H392.292H392.392H392.491H392.591H392.691H392.79H392.89H392.99H393.106H393.223L393.389 120.156L393.555 120.073L393.738 119.99H393.921H394.103H394.286H395.483H395.682H395.865H396.048L396.214 120.073H396.38L396.546 120.19L396.696 120.306L396.846 120.439L396.979 120.572L397.095 120.722L397.211 120.872L397.311 121.038L397.394 121.221V121.387V121.57V121.769V121.952V122.152V122.534V122.717V122.9V123.1V123.266V123.449L397.294 123.615L397.195 123.781L397.145 125.777L397.012 125.91L396.879 126.043L396.729 126.176L396.563 126.276L396.43 126.375L396.264 126.475L396.114 126.575L395.948 126.658L395.799 126.758H395.632L395.483 126.858L395.317 126.941H395.167H395.001H394.835H394.685L394.519 127.024H394.353H394.203H394.037H393.871H393.704H393.555H393.389H393.223H393.056H392.907H392.741H392.574H392.408H392.259H392.092H391.926H391.76H391.594H389.35H389.184H388.835H388.685H388.536H388.37H388.22H388.07H387.921H387.771H387.622H387.472H387.323H387.173H387.023H386.874H386.741H386.591H386.458H386.309H386.176H386.043H385.91H385.76L385.627 126.941L385.494 126.858H385.378L385.245 126.775H385.112L384.996 126.675L384.863 126.592L384.747 126.492L384.614 126.392L384.497 126.292L384.381 126.193L384.265 126.093L384.148 125.993L384.032 125.877L383.916 125.777L383.816 125.66L383.699 125.544L383.6 125.444L383.483 125.328L383.384 125.212L383.284 125.095L383.184 124.962L383.085 124.846L382.985 124.729L382.885 124.596L382.785 124.463L382.702 124.347L382.603 124.214L382.503 124.081L382.42 123.948L382.337 123.815L382.254 123.682V123.549L382.17 123.416L382.087 123.266L382.004 123.133L381.921 122.983V122.85L381.838 122.701V122.551V122.401V122.252V122.102V121.952V121.803V121.653V121.503V121.337V121.187V121.021V120.872V120.705V120.539V120.389V120.223V120.057V119.89V119.724V119.558L381.755 119.159L381.655 118.76L381.555 118.377L381.472 117.978L381.389 117.562V117.163V116.748L381.306 116.349V115.933V115.517V115.101V114.686V114.27V113.854V113.439V113.006V112.591V112.175V111.743V111.31V107.452V107.037V106.604V106.172V105.74V105.324V104.892V104.459V104.027V103.611L381.389 103.196V102.979V102.763V102.547V102.331V102.131V101.915V101.699V101.499V101.283V101.084V100.868V100.651V100.452V100.236V100.036V99.8366V99.6205V99.4209V99.2048V99.0052V98.8057V98.6061V98.39V98.1904L381.472 97.9909V97.7913V97.5918L381.555 97.3922L381.639 97.1927L381.722 96.9932L381.821 96.7937V96.5941L381.904 96.3946L382.004 96.2116L382.187 95.8458L382.27 95.6463L382.37 95.4467L382.47 95.2638L382.569 95.0643L382.686 94.8814L382.785 94.6818L382.885 94.4989L383.001 94.316L383.101 94.1165L383.217 93.9336L383.334 93.7507L383.45 93.5677L383.566 93.3848L383.683 93.2019L383.816 93.0024L383.916 92.8527L384.032 92.6864L384.165 92.5201L384.281 92.3705L384.414 92.2042L384.564 92.0379L384.697 91.8716L384.846 91.7054L384.996 91.5391L385.162 91.3728L385.312 91.2065L385.478 91.0402L385.644 90.8739L385.827 90.7077L386.01 90.5248L386.192 90.3585L386.375 90.1922L386.575 90.0259L386.774 89.8596L386.974 89.6933L387.173 89.527L387.389 89.3774L387.605 89.2111L387.821 89.0448L388.037 88.8952L388.27 88.7455L388.486 88.5959L388.719 88.4462L388.951 88.2966L389.201 88.1635L389.433 88.0305L389.683 87.8975L389.932 87.7644L390.181 87.6481H390.314H390.447H390.58H390.713H390.846H390.979H391.112H391.245H391.378H391.527H391.66H391.793H391.943H392.092H392.159H392.308H392.458H392.608H392.757H393.821V86.7501Z" fill="white"/>
<path fill-rule="evenodd" clip-rule="evenodd" d="M416.523 90.1922H417.305H417.487H417.687H417.886H418.069H418.268H418.451H418.651H418.85H419.033H419.216H419.382H419.565H419.731H419.897L420.047 90.292L420.196 90.4084L420.329 90.5248L420.462 90.6411L420.595 90.7908L420.695 90.9238L420.811 91.0735L420.894 91.2398V91.4061V91.5723V91.7552V91.9382V92.8527V93.019V93.2019V93.3682L420.811 93.5511L420.728 93.7008L420.628 93.8671L420.529 94.0167L420.412 94.1497L420.279 94.2828L420.146 94.3992L419.997 94.5156L419.847 94.6153L419.681 94.7151L419.515 94.7982H419.349H419.183H419H418.817H418.268H418.086H417.903H417.72H417.62H417.537H417.437H417.271H417.172H415.161H415.061H414.845H414.728H414.629H414.512H414.396H414.296H414.18H414.064H413.964H413.848H413.731H413.632H413.515H413.416H413.299H413.183H413.083H412.967H412.867H412.751H412.651H412.535H412.435H412.335H412.219H412.119H412.019H411.92H411.82H411.72H411.621L411.521 94.8814H411.421H411.321L411.238 94.9645H411.139H411.039H410.956L410.856 95.0477L410.773 95.1308L410.69 95.2139H410.607L410.524 95.2971L410.441 95.3802L410.358 95.4634L410.274 95.5632V95.6463L410.191 95.7461V95.8292V95.929V96.0121V96.1119V96.195V96.2948V96.3946V96.4943V96.5941V96.6772V96.777V96.8768V96.9765V97.0763V97.1595V97.2593V97.359V97.4588V97.5585V97.6417V97.8412V99.82V99.9198V100.02V100.103V100.202V100.302V100.402V100.502V100.602V100.701V100.801V100.917V101.017V101.117V101.233V101.333L410.274 101.45V101.549L410.358 101.666V101.782L410.441 101.882L410.54 101.998L410.623 102.115L410.707 102.214L410.79 102.331L410.989 102.564L411.172 102.78L411.371 103.013L411.571 103.245L411.704 103.395L411.837 103.545L411.986 103.694L412.119 103.844L412.269 103.977L412.402 104.127L412.551 104.276L412.701 104.426L413.017 104.725L413.316 105.025L413.648 105.341L413.964 105.64L414.296 105.956L414.662 106.288L415.044 106.671L415.46 107.07L415.676 107.286L415.892 107.502L416.125 107.718L416.341 107.951L416.573 108.184L416.806 108.434L417.039 108.683L417.271 108.932L417.504 109.182L417.753 109.448L417.986 109.714L418.219 109.997L418.451 110.263L418.684 110.545L418.9 110.828L419.133 111.111L419.349 111.41L419.565 111.709L419.681 111.859L419.781 112.009L419.897 112.158L419.997 112.308L420.097 112.474L420.196 112.624L420.296 112.773L420.396 112.94L420.495 113.089L420.579 113.256L420.678 113.422L420.761 113.572L420.861 113.738L420.944 113.904V114.071L421.027 114.237L421.11 114.403L421.194 114.569V114.736V114.919L421.277 115.085V115.268V115.434V115.617V115.8V115.983V116.166V116.349V116.548V116.731V116.931V117.113V118.776V118.992V119.192V119.408V119.624V119.824V120.04V120.24V120.439L421.194 120.655L421.094 120.855L420.994 121.038L420.878 121.237L420.761 121.42L420.628 121.62L420.495 121.803L420.363 121.969L420.213 122.152L420.063 122.318L419.897 122.484L419.731 122.634L419.565 122.784L419.399 122.933L419.216 123.083L419.016 123.216L418.833 123.349L418.634 123.482L418.435 123.615L418.235 123.732L418.019 123.848L417.803 123.964L417.587 124.064L417.354 124.164L417.138 124.264L416.906 124.363L416.656 124.463L416.407 124.546L416.141 124.646H415.875L415.593 124.729H415.327H415.044H414.778H414.496H414.213H413.947H413.665H413.399H413.116H412.85H412.585H412.302H411.504H411.321H411.155H410.972H410.806H410.64L410.49 124.63L410.341 124.53L410.191 124.413L410.058 124.28L409.942 124.147L409.826 123.998L409.726 123.848L409.626 123.682V123.515V123.349V123.183V123V122.817V125.777V125.594V125.411V125.245V125.078L409.709 124.912L409.809 124.763L409.925 124.613L410.042 124.463L410.158 124.33L410.291 124.214L410.441 124.097L410.59 123.998L410.756 123.898L410.923 123.815H411.089H411.272H411.438H412.585H412.784H412.967H413.15H413.332H413.515H413.698H413.881H414.064H414.23H414.396H414.579H414.745H414.895H415.028H415.177H415.294H415.426H415.526H415.643H415.742H415.825H415.908V123.715V120.788V120.705V120.622V120.539V120.439V120.356V120.256V120.156V120.057V119.957V119.857V119.757V119.658V119.541V119.441V119.325V119.225V119.109V118.992V118.876V118.776L415.825 118.66V118.544V118.427L415.742 118.311L415.659 118.194L415.476 117.962L415.31 117.729L415.127 117.496L414.945 117.263L414.745 117.03L414.546 116.798L414.346 116.581L414.147 116.349L413.947 116.116L413.748 115.9L413.532 115.667L413.332 115.451L413.133 115.234L412.917 115.035L412.717 114.819L412.518 114.619L412.319 114.42L412.119 114.22L411.737 113.854L411.355 113.489L411.006 113.173L410.69 112.857L410.358 112.541L410.025 112.225L409.676 111.892L409.344 111.56L409.161 111.393L408.995 111.227L408.828 111.044L408.646 110.861L408.479 110.678L408.313 110.495L408.147 110.312L407.981 110.13L407.748 109.88L407.516 109.614L407.283 109.331L407.05 109.049L406.934 108.899L406.818 108.749L406.701 108.6L406.585 108.45L406.468 108.3L406.352 108.134L406.236 107.985L406.136 107.818L406.02 107.652L405.903 107.469L405.804 107.303L405.687 107.12L405.588 106.937L405.488 106.754L405.388 106.571L405.288 106.388L405.189 106.189L405.089 105.989L405.006 105.79L404.923 105.573L404.84 105.374V105.158L404.757 104.942V104.725V104.509V104.31V104.094V103.894V103.678V103.478V103.262V103.063V101.217V101.017V100.818V100.618V100.419V100.219V100.02V99.8366V99.6371V99.4542V99.2546V99.0717V98.8888V98.7059V98.523L404.84 98.3401V98.1572L404.923 97.9743V97.808L405.006 97.6251L405.089 97.4588L405.189 97.2925L405.272 97.1262L405.372 96.9433L405.471 96.7937L405.571 96.6274L405.671 96.4611L405.77 96.2948L405.887 96.1451L406.003 95.9789L406.103 95.8292L406.219 95.6795L406.336 95.5299L406.468 95.3802L406.585 95.2306L406.701 95.0809L406.834 94.9479L406.967 94.7982L407.083 94.6652L407.216 94.5156L407.349 94.3825L407.117 94.183L407.25 94.05L407.383 93.9169L407.532 93.8005L407.665 93.6675L407.815 93.5511L407.964 93.4181L408.097 93.3017L408.247 93.1853L408.396 93.0689L408.563 92.9525L408.712 92.8361L408.862 92.7363L409.011 92.6199L409.177 92.5202L409.327 92.4204L409.493 92.3206L409.659 92.2209L409.826 92.1211L409.975 92.0213L410.141 91.9215H410.308L410.49 91.8218L410.657 91.7386L410.823 91.6555H410.989H411.172L411.338 91.5723L411.504 91.4892H411.687H411.87H412.036H412.219H412.402H412.585H412.751H412.934H413.116H413.299H413.482H413.665H413.864H414.047H414.23H414.413H414.612H414.795H414.978H416.507L416.523 90.1922Z" fill="white"/>
<path fill-rule="evenodd" clip-rule="evenodd" d="M436.318 92.5202H437.414H437.597H437.78H437.963H438.146H438.328H438.511H438.694H438.877H439.043H439.226H439.409H439.592H439.758H439.941H440.123H440.29H440.472H440.639L440.821 92.6033H440.988L441.154 92.7031L441.32 92.7862L441.47 92.8694L441.619 92.9691L441.769 93.0855L441.902 93.1853L442.035 93.3183L442.151 93.4513L442.267 93.601L442.367 93.7507L442.45 93.9003L442.533 94.0666V94.2329V94.3992V94.5654V94.7483V95.2805V95.4634V95.6463V95.8126V95.9955L442.45 96.1618V96.3114L442.35 96.4777L442.251 96.6107L442.151 96.7604L442.018 96.8934L441.902 97.0098L441.752 97.1262L441.603 97.2426H441.453L441.303 97.3257H441.137H440.971H440.788H440.622H439.907H439.725H439.558H439.376H439.209H439.043L438.894 97.2426H438.794H438.711H438.628H438.545H438.461H438.378H438.279H438.196H438.112H438.013H437.93H437.83H437.747H437.564H437.464H434.888H434.788H434.689H434.606H434.506H434.406H434.307H434.207H434.124H434.024H433.924H433.825H433.741H433.642H433.559H433.476H433.376H433.293H433.21H433.127H433.043H432.96H432.877H432.794V97.3257V97.4089V99.2214V99.3211V99.5373V99.6371V100.02V100.136V100.252V100.369V100.485V100.585V100.701L432.877 100.818V100.934V101.051L432.977 101.167L433.06 101.3L433.16 101.416L433.26 101.533L433.359 101.649L433.459 101.782L433.575 101.899L433.675 102.015L433.791 102.148L433.908 102.264L434.024 102.381L434.157 102.514L434.273 102.63L434.406 102.763L434.656 103.013L434.921 103.262L435.021 103.345L435.121 103.445L435.237 103.545H435.337L435.453 103.645L435.57 103.744L435.686 103.844L435.802 103.927L436.052 104.127L436.301 104.326L436.567 104.526L436.833 104.725L437.115 104.925L437.398 105.141L437.979 105.557L438.279 105.773L438.578 106.006L438.877 106.222L439.193 106.455L439.492 106.688L439.808 106.937L439.957 107.053L440.107 107.186L440.273 107.319L440.423 107.436L440.572 107.569L440.722 107.702L440.871 107.851L441.038 107.985L441.187 108.134L441.337 108.267L441.47 108.417L441.619 108.567L441.769 108.716L441.918 108.866L442.051 109.032L442.201 109.198L442.334 109.365L442.483 109.531L442.616 109.697L442.749 109.88L442.882 110.046L442.999 110.229L443.132 110.412L443.248 110.612L443.364 110.795L443.481 110.994L443.597 111.194L443.697 111.41L443.796 111.593L443.879 111.776L443.963 111.959L444.046 112.142V112.325V112.507V112.69V112.873V113.073V113.256V113.439V113.622V113.821V114.004V114.187V114.386V114.569V114.752V116.781V116.964V117.147V117.313V117.496V117.662V117.845V118.011V118.194V118.361V118.527V118.693V118.859V119.026V119.192V119.342L443.963 119.508V119.658L443.879 119.824V119.974L443.796 120.123L443.713 120.273L443.63 120.423L443.547 120.572L443.447 120.722L443.348 120.871V121.005L443.231 121.154L443.132 121.287L443.032 121.42L442.932 121.553L442.816 121.686L442.716 121.819L442.6 121.952L442.483 122.085L442.367 122.202L442.251 122.318L442.118 122.451L442.001 122.568L441.885 122.684L441.752 122.8L441.619 122.917L441.486 123.017L441.353 123.133L441.22 123.233L441.087 123.349L440.954 123.449L440.821 123.549L440.672 123.648L440.539 123.748L440.389 123.831L440.24 123.931H440.107L439.957 124.014L439.808 124.114H439.658H439.492H439.342L439.193 124.197H439.027H438.877H438.711H438.561H438.395H438.229H438.063H437.896H437.73H437.564H437.398H437.232H437.065H436.883H436.716H436.55H436.367H436.201H436.018H435.669H435.487H433.309H433.127H432.944H432.761H432.578H432.379H432.196H432.046H431.863H431.697L431.531 124.114H431.381L431.215 124.031L431.082 123.931L430.933 123.815L430.8 123.682L430.683 123.549L430.567 123.416L430.467 123.266L430.384 123.116L430.301 122.95V122.784V122.617V122.435V122.268V121.553V121.37V121.204V121.021V120.855V120.705L430.384 120.539L430.484 120.389L430.6 120.256L430.717 120.107L430.85 119.99L430.983 119.874L431.132 119.757L431.282 119.674L431.431 119.574H431.598H431.764H431.93H432.113H432.296H433.01H433.176H433.293H435.603H435.703H435.869H435.968H436.052H436.135H436.234H436.318H436.401H436.5H436.583H436.667H436.75H436.833H436.916H436.999H437.082H437.165H437.248H437.331V119.491V119.408V119.259V117.296V117.197V117.113V117.03V116.931V116.847V116.748V116.665V116.565V116.482V116.365V116.265V116.166V116.066V115.966V115.866V115.783V115.683L437.248 115.584V115.484L437.165 115.384V115.284L437.065 115.185L436.982 115.085L436.883 114.985L436.799 114.885L436.7 114.786L436.6 114.686L436.484 114.586L436.384 114.486L436.268 114.386L436.168 114.287L436.052 114.187L435.935 114.087L435.819 113.987L435.686 113.888L435.57 113.788L435.453 113.688L435.187 113.472L434.921 113.272L434.656 113.073L434.373 112.873L434.091 112.657L433.808 112.458L433.226 112.025L432.927 111.809L432.628 111.593L432.329 111.377L432.03 111.144L431.73 110.911L431.431 110.678L431.282 110.545L431.132 110.429L430.983 110.296L430.833 110.163L430.683 110.046L430.534 109.913L430.384 109.78L430.251 109.647L429.952 109.365L429.653 109.082L429.503 108.932L429.354 108.783L429.204 108.633L429.055 108.467L428.905 108.317L428.756 108.151L428.606 107.985L428.456 107.818L428.307 107.635L428.157 107.469L428.008 107.286L427.858 107.103L427.709 106.904L427.559 106.704L427.426 106.521L427.293 106.305L427.16 106.106L427.027 105.889L426.894 105.673L426.761 105.44L426.645 105.208L426.545 104.991V104.858V104.742V104.609V104.493V104.36V104.243V104.11V103.977V103.844V103.711V103.578V103.445V103.245V103.029V102.813V102.614V102.397V102.198V101.982V99.953V99.7535V99.5539V99.3544V99.1715V98.972V98.7891V98.5895V98.4066V98.2237V98.0408V97.8579V97.675V97.5087V97.3424L426.628 97.1595L426.711 96.9932L426.794 96.8269L426.894 96.6606V96.4943L426.994 96.3447L427.094 96.1784L427.193 96.0287L427.293 95.8791L427.409 95.7294L427.526 95.5798L427.642 95.4301L427.758 95.2971L427.875 95.1474L427.991 95.0144L428.107 94.8814L428.24 94.7483L428.373 94.6153L428.49 94.4989L428.623 94.3659L428.772 94.2495L428.905 94.1331L429.038 94.0167L429.171 93.9003L429.321 93.7839L429.47 93.6841L429.603 93.5844L429.753 93.468L429.902 93.3682L430.052 93.2684H430.202L430.351 93.1687L430.517 93.0855L430.667 92.9857H430.833L430.983 92.9026L431.149 92.8195H431.298L431.465 92.7363H431.631H431.797L431.963 92.6532H432.129H432.296H432.462H432.628H432.794H432.977H433.143H433.309H433.492H433.658H433.841H434.007H434.19H434.373H434.539H434.722H436.517L436.318 92.5202Z" fill="white"/>
<path fill-rule="evenodd" clip-rule="evenodd" d="M294.551 327.579C294.551 327.579 274.043 333.897 271.284 360.968C263.14 439.837 266.098 477.367 257.24 492.981C255.379 496.306 171.083 484.251 170.186 486.579C167.693 493.131 151.339 520.185 154.397 521.066C164.003 523.826 276.419 554.822 300.435 532.074C322.555 511.156 319.497 469.418 314.478 447.486C308.063 419.6 326.494 329.241 294.551 327.579Z" fill="#096F62"/>
<path d="M451.691 536.497C430.384 465.361 367.013 311.083 367.013 311.083L332.477 306.494C328.123 303.168 284.663 337.24 284.663 337.24C284.663 337.24 280.973 357.925 277.483 378.528C274.259 397.384 255.877 416.956 257.656 427C261.661 450.279 290.28 455.85 290.28 455.85C295.349 496.805 299.288 521.282 304.806 542.317" fill="#1BA008"/>
<path fill-rule="evenodd" clip-rule="evenodd" d="M363.041 311.432C363.041 311.432 352.388 335.045 357.64 369.399C359.883 384.032 377.068 443.395 381.123 457.695C389.915 488.641 375.39 489.289 344.66 489.472C340.322 489.472 308.495 486.147 307.864 488.874C306.069 496.44 299.554 532.19 311.437 534.818C325.863 538.01 401.183 547.289 422.939 519.187C442.999 493.297 435.187 447.419 427.642 423.724C418.036 393.593 395.583 309.404 363.041 311.432Z" fill="#096F62"/>
<path fill-rule="evenodd" clip-rule="evenodd" d="M308.445 487.626C312.816 487.626 317.038 498.069 317.869 511.072C318.7 524.076 315.858 534.668 311.487 534.718C307.116 534.768 302.894 524.292 302.063 511.272C301.232 498.252 304.074 487.676 308.445 487.626Z" fill="#02574D"/>
<path fill-rule="evenodd" clip-rule="evenodd" d="M316.439 507.581C316.439 507.581 299.055 503.49 285.211 495.276C280.973 492.748 281.588 497.886 281.987 498.452C284.048 501.428 293.321 507.913 292.457 508.329C290.612 509.177 270.037 503.723 263.157 500.996C262.475 500.713 255.129 497.47 254.664 498.551C253.617 501.029 257.323 503.124 259.052 504.089C264.935 507.298 284.33 514.215 283.316 514.066C281.472 513.667 265.616 510.989 259.617 509.692C259.218 509.692 250.742 507.78 250.443 508.878C249.844 511.106 256.143 513.267 257.639 513.683C263.506 515.346 279.394 519.919 281.405 520.517C278.699 520.593 275.991 520.51 273.295 520.268C267.262 519.869 261.262 518.472 255.229 518.273C254.049 518.273 250.027 517.741 249.695 519.686C249.495 520.966 252.454 522.147 253.268 522.446C258.254 524.292 294.668 529.646 305.238 527.851C309.31 527.169 315.874 529.364 315.874 529.364C315.874 529.364 323.785 514.115 316.439 507.647" fill="white"/>
<path d="M268.94 157.604C268.94 157.604 242.665 152.615 230.166 169.011C217.668 185.406 220.494 207.489 201.265 215.337C182.036 223.186 175.537 260.55 194.102 271.79C212.666 283.031 190.179 303.7 190.179 303.7C190.179 303.7 173.41 320.096 194.102 340.765C205.43 347.391 217.547 352.565 230.166 356.163C230.166 356.163 215.092 341.447 219.58 322.906C219.58 322.906 221.242 353.718 249.695 356.163C278.148 358.607 296.795 338.62 296.795 338.62L380.11 318.333C380.11 318.333 428.606 305.679 428.722 272.106C428.839 238.534 396.098 242.475 389.882 218.247C383.666 194.02 382.121 170.208 355.114 162.509C328.106 154.81 295.283 126.259 268.94 157.604Z" fill="#02574D"/>
<path d="M332.145 308.074L329.752 243.838C323.287 230.103 285.494 229.372 272.863 236.106C261.229 242.358 255.129 257.174 258.636 271.026L289.848 350.991C294.402 367.221 314.312 362.748 321.907 352.455C341.435 325.916 333.192 309.77 332.145 308.074Z" fill="#EFD0D6"/>
<path d="M240.753 275.532L234.87 249.791C234.87 249.791 223.469 244.503 220.112 256.925C216.754 269.346 229.934 279.207 240.753 275.532Z" fill="white"/>
<path d="M227.142 242.591C234.139 291.578 239.889 323.937 275.023 322.906C310.157 321.875 354.798 281.435 354.382 238.816C353.967 196.198 324.999 162.509 289.865 163.54C254.73 164.571 226.71 199.973 227.142 242.591Z" fill="white"/>
<path fill-rule="evenodd" clip-rule="evenodd" d="M305.869 433.967C305.869 433.967 332.112 455.7 366.398 445.075C366.398 445.041 330.666 475.155 305.869 433.967Z" fill="#096F62"/>
<path d="M309.142 284.21C317.757 279.99 321.916 270.798 318.433 263.68C314.949 256.562 305.142 254.213 296.527 258.434C287.913 262.654 283.753 271.846 287.237 278.964C290.72 286.082 300.528 288.431 309.142 284.21Z" fill="#EFD0D6"/>
<path d="M250.796 284.392C254.757 277.528 251.234 268.074 242.927 263.276C234.62 258.477 224.676 260.151 220.715 267.015C216.754 273.879 220.277 283.332 228.584 288.131C236.891 292.929 246.836 291.255 250.796 284.392Z" fill="#EFD0D6"/>
<path d="M235.934 202.068C235.934 202.068 244.144 187.385 257.539 202.068C270.935 216.751 264.735 240.197 296.695 244.154C328.655 248.112 308.645 278.658 330.899 277.411L333.308 329.707C333.308 329.707 391.76 247.912 361.429 200.372C331.098 152.831 257.19 138.215 235.934 202.068Z" fill="#02574D"/>
<path d="M322.356 279.19L333.242 252.851C333.242 252.851 348.017 247.247 350.377 259.818C352.737 272.389 335.137 282.699 322.356 279.19Z" fill="white"/>
<path d="M312.235 521.133H148.165V537.179H312.235V521.133Z" fill="#77BE6D"/>
<path fill-rule="evenodd" clip-rule="evenodd" d="M225.164 534.003L206.101 356.163L10.6034 369.781L40.951 534.003H225.164Z" fill="#77BE6D"/>
<path fill-rule="evenodd" clip-rule="evenodd" d="M212.815 536.713L194.683 356.329L-0.0664749 370.214L29.4335 536.846L212.815 536.713Z" fill="#1BA008"/>
<path d="M113.59 473.205C123.616 471.15 129.639 459.207 127.043 446.531C124.447 433.855 114.215 425.245 104.189 427.3C94.1626 429.356 88.1395 441.298 90.7356 453.975C93.3317 466.651 103.564 475.261 113.59 473.205Z" fill="#77BE6D"/>
<path fill-rule="evenodd" clip-rule="evenodd" d="M510.425 350.26C510.425 350.26 470.272 330.954 496.182 307.026C522.092 283.098 470.172 266.004 484.98 241.444C499.788 216.884 517.023 228.141 519.881 212.012C522.74 195.882 502.015 183.494 515.361 159.915C528.706 136.336 544.229 126.109 563.558 129.119C582.887 132.129 557.725 179.836 577.485 189.347C597.246 198.859 594.57 229.372 564.372 255.861C534.174 282.349 582.654 299.294 554.168 317.585C525.682 335.876 510.425 350.26 510.425 350.26Z" fill="#1BA008"/>
<path fill-rule="evenodd" clip-rule="evenodd" d="M472.931 400.777C472.931 400.777 501.001 374.437 478.881 363.579C456.76 352.721 493.938 324.735 480.061 310.285C466.183 295.835 454.433 309.42 450.544 297.897C446.655 286.374 451.192 269.895 442.417 253C430.966 231.034 410.291 231.384 397.909 247.014C387.937 259.768 418.518 284.212 404.674 297.199C390.829 310.185 396.231 332.684 421.925 344.19C447.619 355.697 413 382.618 436.45 388.355C459.901 394.092 472.931 400.777 472.931 400.777Z" fill="#1BA008"/>
<path fill-rule="evenodd" clip-rule="evenodd" d="M550.545 162.509L551.043 162.675L551.509 162.958L551.908 163.324L552.223 163.756L552.423 164.255L552.539 164.77V165.319L552.423 165.835L552.107 166.749L551.808 167.68L551.492 168.595L551.193 169.526L550.894 170.457L550.595 171.372L550.295 172.303L550.013 173.234L549.714 174.165L549.431 175.097L549.149 176.028L548.866 176.959L548.584 177.89L548.301 178.821L548.019 179.769L547.753 180.7L547.487 181.632L547.204 182.579L546.938 183.527L546.672 184.458L546.423 185.406L546.157 186.337L545.891 187.285L545.642 188.233L545.393 189.181L545.143 190.129L544.877 191.076L544.645 192.024L544.396 192.972L544.146 193.92L543.897 194.884L543.664 195.832L543.432 196.78L543.182 197.728L542.95 198.692L542.717 199.64L542.484 200.604L542.252 201.552L542.019 202.517L541.803 203.481L541.57 204.429L541.354 205.393L541.121 206.358L540.905 207.306L540.689 208.27L540.473 209.235L540.257 210.199L540.041 211.163L539.825 212.128L539.609 213.092L539.177 215.021L538.761 216.95L538.412 218.896L538.014 220.841L537.598 222.77L537.199 224.716L536.8 226.644L536.418 228.59L536.019 230.536L535.637 232.481L535.238 234.427L534.856 236.372L534.474 238.318L534.108 240.263L533.726 242.209L532.978 246.1L532.213 249.991L531.465 253.882L530.717 257.773L529.97 261.647L529.604 263.593L529.222 265.538L528.839 267.467L528.457 269.413L528.075 271.341L527.693 273.287L527.294 275.216L526.779 277.095L526.38 279.024L525.981 280.953L525.582 282.882L525.166 284.81L524.768 286.723L524.352 288.635L523.205 293.923L522.042 299.227L520.879 304.515L519.715 309.803L518.552 315.091L517.388 320.379L515.145 330.987L512.801 341.58L511.638 346.867L510.458 352.155L509.295 357.443L508.131 362.748L506.968 368.035L505.805 373.323L504.658 378.628L503.511 383.915L502.929 386.559L502.364 389.203L501.783 391.864L501.217 394.508L500.652 397.152L500.087 399.796L499.522 402.456L498.957 405.1L498.409 407.744L497.844 410.388L497.295 413.048L496.73 415.692L496.182 418.336L495.633 420.997L495.101 423.641L494.553 426.301L494.005 428.945L493.473 431.589L492.941 434.25L492.392 436.893L491.877 439.554L491.345 442.198L490.814 444.842L490.298 447.502L489.783 450.146L489.268 452.807L488.753 455.451L488.237 458.111L488.088 458.627L487.822 459.092L487.473 459.508L487.057 459.824L486.559 460.057L486.044 460.173H485.512L484.98 460.073L484.481 459.857L484.049 459.558L483.684 459.159L483.401 458.693L483.235 458.194V457.662V457.13L483.75 454.47L484.265 451.809L484.781 449.149L485.296 446.505L485.828 443.844L486.343 441.184L486.875 438.523L487.406 435.862L487.938 433.219L488.487 430.558L489.019 427.897L489.567 425.254L490.099 422.593L490.647 419.932L491.196 417.289L491.761 414.628L492.309 411.984L492.858 409.324L493.423 406.68L493.988 404.019L494.553 401.375L495.101 398.715L495.683 396.071L496.248 393.41L496.813 390.766L497.378 388.106L497.96 385.462L498.525 382.818L499.672 377.514L500.835 372.209L501.849 366.888L503.012 361.584L504.176 356.296L505.339 350.991L506.519 345.704L507.683 340.416L510.026 329.823L512.369 319.248L513.533 313.96L514.696 308.672L515.859 303.384L517.023 298.113L518.186 292.825L519.333 287.538L519.732 285.625L520.147 283.73L520.546 281.817L520.945 279.888L521.344 277.976L521.743 276.064L522.125 274.135L522.507 272.206L522.906 270.277L523.288 268.348L523.654 266.42L524.036 264.491L524.419 262.545L524.801 260.616L525.549 256.725L526.297 252.834L527.045 248.943L527.792 245.052L528.54 241.161L528.923 239.216L529.305 237.253L529.687 235.308L530.069 233.362L530.452 231.4L530.85 229.455L531.233 227.509L531.765 225.547L532.163 223.585L532.579 221.639L532.978 219.694L533.393 217.748L533.809 215.803L534.224 213.857L534.656 211.912L534.872 210.947L535.088 209.983L535.305 209.002L535.521 208.037L535.737 207.073L535.953 206.092L536.185 205.127L536.401 204.163L536.634 203.198L536.75 202.267L536.966 201.286L537.199 200.322L537.432 199.357L537.664 198.393L537.914 197.428L538.146 196.464L538.412 195.616L538.662 194.652L538.911 193.704L539.144 192.739L539.393 191.775L539.642 190.81L539.892 189.863L540.157 188.898L540.407 187.934L540.656 186.986L540.922 186.021L541.188 185.074L541.454 184.109L541.72 183.161L541.986 182.214L542.252 181.249L542.517 180.301L542.8 179.353L543.083 178.406L543.398 177.325L543.681 176.377L543.963 175.429L544.263 174.481L544.545 173.534L544.844 172.586L545.127 171.654L545.426 170.707L545.725 169.759L546.041 168.828L546.34 167.88L546.656 166.949L546.955 166.001L547.271 165.07L547.586 164.138L547.803 163.656L548.135 163.224L548.534 162.875L548.999 162.609L549.514 162.442H550.046L550.545 162.509Z" fill="#02574D"/>
<path fill-rule="evenodd" clip-rule="evenodd" d="M422.224 260.467H422.656L423.072 260.633L423.454 260.866L423.803 261.148L424.085 261.497L424.301 261.897L424.567 262.512L424.85 263.144L425.415 264.391L425.963 265.655L426.512 266.918L427.06 268.199L427.592 269.462L428.141 270.743L428.672 272.023L429.204 273.304L429.72 274.584L430.251 275.881L430.767 277.161L431.282 278.458L431.797 279.755L432.312 281.069L432.827 282.366L433.326 283.663L433.825 284.977L434.34 286.29L434.838 287.604L435.32 288.918L435.819 290.231L436.318 291.545L436.799 292.875L437.281 294.189L437.78 295.519L438.262 296.833L438.744 298.163L439.226 299.493L439.691 300.824L440.173 302.154L440.655 303.484L441.121 304.814L441.603 306.145L442.533 308.805L443.481 311.466L444.411 314.126L445.342 316.803L446.273 319.464L448.118 324.785L449.048 327.429L449.979 330.089L450.91 332.733L451.84 335.361L452.306 336.674L452.771 337.988L453.236 339.302L453.702 340.615L454.184 341.912L454.649 343.226L455.131 344.523L455.596 345.82L456.909 349.428L458.239 353.02L459.552 356.628L460.881 360.22L463.524 367.437L466.183 374.637L468.842 381.837L471.485 389.054L474.144 396.254L475.474 399.862L476.787 403.47L478.116 407.079L479.429 410.704L480.742 414.312L482.055 417.92L483.368 421.529L484.681 425.154L485.994 428.762L487.29 432.387L488.603 436.012L489.899 439.637L491.179 443.262L492.475 446.887L493.755 450.512L494.387 452.324L495.035 454.137L495.666 455.966L496.315 457.779L496.946 459.591L497.578 461.404L497.677 461.852V462.285V462.734L497.545 463.166L497.362 463.565L497.096 463.931L496.78 464.247L496.414 464.496L495.999 464.679L495.567 464.779H495.118H494.669L494.254 464.646L493.838 464.463L493.489 464.197L493.174 463.881L492.924 463.499L492.741 463.1L492.11 461.287L491.478 459.475L490.83 457.662L490.199 455.85L489.567 454.037L488.919 452.225L487.639 448.6L486.359 444.975L485.063 441.35L483.767 437.741L482.47 434.116L481.174 430.508L479.861 426.9L478.565 423.291L477.252 419.666L475.939 416.058L474.609 412.45L473.296 408.841L471.983 405.233L470.654 401.641L469.324 398.033L466.682 390.816L464.023 383.616L461.38 376.399L458.721 369.199L456.062 361.999L454.749 358.391L453.419 354.783L452.106 351.191L450.777 347.582L450.311 346.269L449.829 344.972L449.364 343.658L448.882 342.345L448.417 341.031L447.951 339.717L447.469 338.387L447.004 337.073L446.073 334.429L445.143 331.786L444.212 329.125L443.281 326.464L441.436 321.143L440.506 318.483L439.575 315.822L438.644 313.162L437.697 310.518L436.766 307.857L436.301 306.527L435.819 305.197L435.354 303.883L434.872 302.553L434.406 301.239L433.924 299.909L433.442 298.595L432.96 297.282L432.478 295.968L431.996 294.654L431.514 293.341L431.016 292.027L430.534 290.714L430.035 289.417L429.537 288.119L429.055 286.822L428.556 285.525L428.041 284.228L427.542 282.931L427.044 281.651L426.529 280.354L426.013 279.074L425.498 277.793L424.983 276.53L424.468 275.249L423.936 273.985L423.404 272.722L422.872 271.458L422.34 270.211L421.809 268.947L421.26 267.7L420.728 266.469L420.18 265.222L419.897 264.607L419.615 263.992L419.465 263.559V263.127V262.678L419.548 262.246L419.698 261.813L419.93 261.431L420.23 261.098L420.562 260.816L420.961 260.6L421.376 260.45H421.825L422.224 260.467Z" fill="#02574D"/>
<path fill-rule="evenodd" clip-rule="evenodd" d="M524.851 437.592H423.587V493.629C423.587 511.438 446.688 536.148 446.688 536.148L499.954 537.262C499.954 537.262 524.884 512.203 524.884 493.629L524.851 437.592Z" fill="#045542"/>
</g>
<defs>
<clipPath id="clip0_3_76">
<rect width="590" height="557" fill="white"/>
</clipPath>
</defs>
</svg>
