<svg id="Camada_2" data-name="Camada 2" xmlns="http://www.w3.org/2000/svg" viewBox="0 0 200 200">
  <g>
    <g>
      <path d="M121.65,141.52H92.78a1.9,1.9,0,0,1,0-3.79h28.87A1.9,1.9,0,0,1,121.65,141.52Z" style="fill: #1ba008"/>
      <path d="M121.65,152.05H101a1.9,1.9,0,0,1,0-3.8h20.62A1.9,1.9,0,0,1,121.65,152.05Z" style="fill: #1ba008"/>
      <path d="M121.65,162.57h-12a1.9,1.9,0,0,1,0-3.8h12A1.9,1.9,0,0,1,121.65,162.57Z" style="fill: #1ba008"/>
    </g>
    <path d="M116.35,179H84.08A12.7,12.7,0,0,1,71.4,166.28l-.72-32.68a3.79,3.79,0,0,1,7.58-.17L79,166.19a5.12,5.12,0,0,0,5.1,5.18h32.27a5.16,5.16,0,0,0,5.16-5.16V133.46a5,5,0,0,0-5-5H83.84c-23.69-.07-38.25-26.61-38.13-47.89C45.71,46.62,69.49,21,101,21c13.24,0,26.8,6,37.2,16.58,25.25,24.56,18.84,62-6.06,84.17a3.79,3.79,0,0,1-5-5.66C148.87,96.6,155,64.68,132.83,43c-31-31.9-80.51-6.55-79.54,37.58-.24,16.83,11.49,40.3,30.55,40.31h32.63a12.64,12.64,0,0,1,12.63,12.62v32.75A12.76,12.76,0,0,1,116.35,179Z" style="fill: #1ba008"/>
  </g>
</svg>
