<svg width="455" height="61" viewBox="0 0 455 61" fill="none" xmlns="http://www.w3.org/2000/svg">
<path d="M37.1033 43.1636H28.2979C28.1519 43.153 28.0153 43.0875 27.9156 42.9803C27.8159 42.873 27.7604 42.7321 27.7604 42.5856C27.7604 42.4392 27.8159 42.2982 27.9156 42.191C28.0153 42.0838 28.1519 42.0183 28.2979 42.0077H37.1033C37.2493 42.0183 37.3859 42.0838 37.4856 42.191C37.5853 42.2982 37.6408 42.4392 37.6408 42.5856C37.6408 42.7321 37.5853 42.873 37.4856 42.9803C37.3859 43.0875 37.2493 43.153 37.1033 43.1636Z" fill="#1BA008"/>
<path d="M37.1033 46.3753H30.805C30.6513 46.3753 30.5039 46.3142 30.3953 46.2055C30.2866 46.0969 30.2255 45.9495 30.2255 45.7958C30.2255 45.6421 30.2866 45.4947 30.3953 45.386C30.5039 45.2773 30.6513 45.2163 30.805 45.2163H37.0941C37.2478 45.2151 37.3957 45.2749 37.5052 45.3828C37.6148 45.4906 37.677 45.6375 37.6782 45.7912C37.6794 45.9449 37.6195 46.0928 37.5117 46.2023C37.4039 46.3118 37.257 46.3741 37.1033 46.3753V46.3753Z" fill="#1BA008"/>
<path d="M37.1033 49.5839H33.4433C33.2896 49.5839 33.1422 49.5228 33.0335 49.4141C32.9248 49.3055 32.8638 49.1581 32.8638 49.0044C32.8638 48.8507 32.9248 48.7033 33.0335 48.5946C33.1422 48.4859 33.2896 48.4249 33.4433 48.4249H37.1033C37.257 48.4249 37.4044 48.4859 37.513 48.5946C37.6217 48.7033 37.6828 48.8507 37.6828 49.0044C37.6828 49.1581 37.6217 49.3055 37.513 49.4141C37.4044 49.5228 37.257 49.5839 37.1033 49.5839V49.5839Z" fill="#1BA008"/>
<path d="M35.4868 54.595H25.6444C25.1357 54.5942 24.6322 54.4932 24.1626 54.2978C23.6929 54.1024 23.2663 53.8164 22.9072 53.4562C22.5481 53.0959 22.2635 52.6684 22.0695 52.1982C21.8756 51.7279 21.7762 51.2241 21.777 50.7154L21.5574 40.748C21.5505 40.4414 21.6657 40.1447 21.8777 39.923C22.0896 39.7014 22.3809 39.573 22.6874 39.5661C22.994 39.5592 23.2908 39.6744 23.5124 39.8864C23.7341 40.0983 23.8624 40.3896 23.8693 40.6961L24.095 50.6879C24.0926 50.894 24.131 51.0986 24.208 51.2898C24.285 51.4809 24.3991 51.655 24.5437 51.8019C24.6883 51.9487 24.8606 52.0655 25.0505 52.1455C25.2405 52.2255 25.4444 52.2671 25.6505 52.2678H35.4929C35.9103 52.2678 36.3106 52.102 36.6057 51.8069C36.9009 51.5117 37.0667 51.1114 37.0667 50.694V40.7053C37.0667 40.3008 36.906 39.913 36.62 39.627C36.334 39.341 35.9461 39.1803 35.5417 39.1803H25.5712C18.3458 39.1589 13.905 31.0642 13.9416 24.5738C13.9416 14.2191 21.1945 6.405 30.805 6.405C34.8432 6.405 38.979 8.235 42.151 11.4619C49.8523 18.9527 47.8972 30.3719 40.3027 37.1337C40.0702 37.3061 39.7814 37.385 39.4936 37.3547C39.2057 37.3245 38.9397 37.1873 38.748 36.9704C38.5564 36.7535 38.4531 36.4725 38.4586 36.1831C38.4641 35.8937 38.578 35.6169 38.7777 35.4074C45.4054 29.463 47.275 19.7274 40.5132 13.115C31.0582 3.3855 15.9576 11.1172 16.2535 24.5769C16.1803 29.71 19.7579 36.8684 25.5712 36.8714H35.5234C36.5442 36.8723 37.5231 37.2779 38.2453 37.9995C38.9674 38.7211 39.3739 39.6997 39.3755 40.7205V50.7093C39.3739 51.7399 38.9636 52.7277 38.2346 53.4562C37.5055 54.1846 36.5174 54.5942 35.4868 54.595V54.595Z" fill="#1BA008"/>
<path d="M67.556 44V19.988H73.388V39.428H83.828V44H67.556ZM94.3648 44.54C93.2608 44.54 92.2168 44.432 91.2328 44.216C90.2728 44.024 89.4208 43.7 88.6768 43.244C87.9568 42.764 87.3928 42.128 86.9848 41.336C86.5768 40.52 86.3728 39.512 86.3728 38.312C86.3728 37.184 86.6008 36.2 87.0568 35.36C87.5368 34.52 88.2568 33.872 89.2168 33.416C90.1768 32.96 91.3888 32.732 92.8528 32.732C93.6688 32.732 94.4608 32.816 95.2288 32.984C95.9968 33.152 96.6808 33.38 97.2808 33.668C97.9048 33.956 98.3968 34.268 98.7568 34.604L98.9728 37.196C98.4928 36.908 97.9168 36.68 97.2448 36.512C96.5728 36.344 95.8528 36.26 95.0848 36.26C93.9088 36.26 93.0448 36.44 92.4928 36.8C91.9648 37.136 91.7008 37.676 91.7008 38.42C91.7008 38.876 91.8328 39.284 92.0968 39.644C92.3608 40.004 92.7088 40.28 93.1408 40.472C93.5968 40.664 94.0648 40.76 94.5448 40.76C95.7688 40.76 96.6208 40.676 97.1008 40.508C97.6048 40.34 97.8568 40.004 97.8568 39.5V32.804C97.8568 31.7 97.4968 30.908 96.7768 30.428C96.0808 29.924 95.0848 29.672 93.7888 29.672C92.7328 29.672 91.6648 29.864 90.5848 30.248C89.5288 30.608 88.6648 31.052 87.9928 31.58V26.828C88.6168 26.444 89.5768 26.084 90.8728 25.748C92.1928 25.412 93.6688 25.244 95.3008 25.244C95.8768 25.244 96.5128 25.292 97.2088 25.388C97.9048 25.484 98.6008 25.664 99.2968 25.928C99.9928 26.168 100.629 26.528 101.205 27.008C101.805 27.488 102.285 28.1 102.645 28.844C103.005 29.588 103.185 30.512 103.185 31.616L103.149 40.22C103.149 41.252 102.801 42.092 102.105 42.74C101.409 43.364 100.401 43.82 99.0808 44.108C97.7848 44.396 96.2128 44.54 94.3648 44.54ZM107.946 44V27.692C108.282 27.404 108.882 27.08 109.746 26.72C110.61 26.336 111.594 26 112.698 25.712C113.826 25.4 114.954 25.244 116.082 25.244C117.21 25.244 118.098 25.328 118.746 25.496C119.394 25.664 119.886 25.88 120.222 26.144V30.068C119.814 29.972 119.298 29.9 118.674 29.852C118.05 29.804 117.402 29.78 116.73 29.78C116.058 29.756 115.422 29.756 114.822 29.78C114.222 29.804 113.718 29.852 113.31 29.924V44H107.946ZM130.365 44.54C129.261 44.54 128.217 44.432 127.233 44.216C126.273 44.024 125.421 43.7 124.677 43.244C123.957 42.764 123.393 42.128 122.985 41.336C122.577 40.52 122.373 39.512 122.373 38.312C122.373 37.184 122.601 36.2 123.057 35.36C123.537 34.52 124.257 33.872 125.217 33.416C126.177 32.96 127.389 32.732 128.853 32.732C129.669 32.732 130.461 32.816 131.229 32.984C131.997 33.152 132.681 33.38 133.281 33.668C133.905 33.956 134.397 34.268 134.757 34.604L134.973 37.196C134.493 36.908 133.917 36.68 133.245 36.512C132.573 36.344 131.853 36.26 131.085 36.26C129.909 36.26 129.045 36.44 128.493 36.8C127.965 37.136 127.701 37.676 127.701 38.42C127.701 38.876 127.833 39.284 128.097 39.644C128.361 40.004 128.709 40.28 129.141 40.472C129.597 40.664 130.065 40.76 130.545 40.76C131.769 40.76 132.621 40.676 133.101 40.508C133.605 40.34 133.857 40.004 133.857 39.5V32.804C133.857 31.7 133.497 30.908 132.777 30.428C132.081 29.924 131.085 29.672 129.789 29.672C128.733 29.672 127.665 29.864 126.585 30.248C125.529 30.608 124.665 31.052 123.993 31.58V26.828C124.617 26.444 125.577 26.084 126.873 25.748C128.193 25.412 129.669 25.244 131.301 25.244C131.877 25.244 132.513 25.292 133.209 25.388C133.905 25.484 134.601 25.664 135.297 25.928C135.993 26.168 136.629 26.528 137.205 27.008C137.805 27.488 138.285 28.1 138.645 28.844C139.005 29.588 139.185 30.512 139.185 31.616L139.149 40.22C139.149 41.252 138.801 42.092 138.105 42.74C137.409 43.364 136.401 43.82 135.081 44.108C133.785 44.396 132.213 44.54 130.365 44.54ZM151.988 44L161.06 19.988H167.432L175.928 44H169.952L162.284 21.356L165.128 21.104L157.496 44H151.988ZM157.1 38.816L158.288 34.532H169.196L169.736 38.816H157.1ZM185.77 44.54C184.114 44.444 182.686 44.06 181.486 43.388C180.31 42.716 179.386 41.732 178.714 40.436C178.066 39.116 177.742 37.46 177.742 35.468C177.742 33.452 177.994 31.784 178.498 30.464C179.002 29.12 179.698 28.076 180.586 27.332C181.498 26.588 182.59 26.06 183.862 25.748C185.134 25.436 186.55 25.28 188.11 25.28C189.622 25.28 190.942 25.472 192.07 25.856C193.198 26.24 194.074 26.792 194.698 27.512C195.322 28.232 195.634 29.12 195.634 30.176V44.216C195.634 45.488 195.43 46.604 195.022 47.564C194.614 48.548 194.002 49.364 193.186 50.012C192.394 50.684 191.422 51.188 190.27 51.524C189.142 51.86 187.834 52.028 186.346 52.028C184.738 52.028 183.358 51.908 182.206 51.668C181.078 51.452 180.214 51.176 179.614 50.84V46.124C179.974 46.268 180.502 46.46 181.198 46.7C181.894 46.94 182.674 47.132 183.538 47.276C184.402 47.444 185.266 47.528 186.13 47.528C187.258 47.528 188.122 47.372 188.722 47.06C189.346 46.748 189.778 46.328 190.018 45.8C190.258 45.272 190.378 44.672 190.378 44V41.048L191.422 41.804C191.038 42.356 190.582 42.836 190.054 43.244C189.526 43.652 188.902 43.964 188.182 44.18C187.486 44.42 186.682 44.54 185.77 44.54ZM187.138 40.508C187.762 40.508 188.338 40.448 188.866 40.328C189.394 40.184 189.898 39.98 190.378 39.716V31.364C190.378 30.86 190.234 30.476 189.946 30.212C189.658 29.948 189.298 29.768 188.866 29.672C188.434 29.576 187.978 29.528 187.498 29.528C186.394 29.528 185.518 29.768 184.87 30.248C184.246 30.728 183.79 31.4 183.502 32.264C183.238 33.104 183.106 34.064 183.106 35.144C183.106 36.8 183.478 38.108 184.222 39.068C184.966 40.028 185.938 40.508 187.138 40.508ZM208.694 44.54C207.014 44.54 205.526 44.276 204.23 43.748C202.934 43.22 201.926 42.416 201.206 41.336C200.486 40.232 200.126 38.804 200.126 37.052V25.784H205.49V36.62C205.49 37.772 205.742 38.636 206.246 39.212C206.774 39.764 207.602 40.04 208.73 40.04C209.882 40.04 210.71 39.764 211.214 39.212C211.718 38.636 211.97 37.772 211.97 36.62V25.784H217.01V37.052C217.01 39.644 216.266 41.54 214.778 42.74C213.29 43.94 211.262 44.54 208.694 44.54ZM221.855 44V26.036H227.219L227.255 44H221.855ZM221.747 23.3V19.16H227.291V23.3H221.747ZM237.376 44H232.048V18.908H237.376V44ZM249.158 44.54C248.054 44.54 247.01 44.432 246.026 44.216C245.066 44.024 244.214 43.7 243.47 43.244C242.75 42.764 242.186 42.128 241.778 41.336C241.37 40.52 241.166 39.512 241.166 38.312C241.166 37.184 241.394 36.2 241.85 35.36C242.33 34.52 243.05 33.872 244.01 33.416C244.97 32.96 246.182 32.732 247.646 32.732C248.462 32.732 249.254 32.816 250.022 32.984C250.79 33.152 251.474 33.38 252.074 33.668C252.698 33.956 253.19 34.268 253.55 34.604L253.766 37.196C253.286 36.908 252.71 36.68 252.038 36.512C251.366 36.344 250.646 36.26 249.878 36.26C248.702 36.26 247.838 36.44 247.286 36.8C246.758 37.136 246.494 37.676 246.494 38.42C246.494 38.876 246.626 39.284 246.89 39.644C247.154 40.004 247.502 40.28 247.934 40.472C248.39 40.664 248.858 40.76 249.338 40.76C250.562 40.76 251.414 40.676 251.894 40.508C252.398 40.34 252.65 40.004 252.65 39.5V32.804C252.65 31.7 252.29 30.908 251.57 30.428C250.874 29.924 249.878 29.672 248.582 29.672C247.526 29.672 246.458 29.864 245.378 30.248C244.322 30.608 243.458 31.052 242.786 31.58V26.828C243.41 26.444 244.37 26.084 245.666 25.748C246.986 25.412 248.462 25.244 250.094 25.244C250.67 25.244 251.306 25.292 252.002 25.388C252.698 25.484 253.394 25.664 254.09 25.928C254.786 26.168 255.422 26.528 255.998 27.008C256.598 27.488 257.078 28.1 257.438 28.844C257.798 29.588 257.978 30.512 257.978 31.616L257.942 40.22C257.942 41.252 257.594 42.092 256.898 42.74C256.202 43.364 255.194 43.82 253.874 44.108C252.578 44.396 251.006 44.54 249.158 44.54ZM262.739 44V27.692C263.075 27.404 263.675 27.08 264.539 26.72C265.403 26.336 266.387 26 267.491 25.712C268.619 25.4 269.747 25.244 270.875 25.244C272.003 25.244 272.891 25.328 273.539 25.496C274.187 25.664 274.679 25.88 275.015 26.144V30.068C274.607 29.972 274.091 29.9 273.467 29.852C272.843 29.804 272.195 29.78 271.523 29.78C270.851 29.756 270.215 29.756 269.615 29.78C269.015 29.804 268.511 29.852 268.103 29.924V44H262.739Z" fill="white"/>
</svg>
